<?xml version="1.0" encoding="UTF-8"?><svg id="Calque_1" xmlns="http://www.w3.org/2000/svg" xmlns:xlink="http://www.w3.org/1999/xlink" viewBox="0 0 101.47 101.47"><defs><style>.cls-1{fill:none;}.cls-2{clip-path:url(#clippath);}.cls-3,.cls-4,.cls-5,.cls-6,.cls-7,.cls-8,.cls-9,.cls-10,.cls-11,.cls-12,.cls-13,.cls-14,.cls-15,.cls-16,.cls-17,.cls-18,.cls-19,.cls-20,.cls-21,.cls-22,.cls-23,.cls-24,.cls-25,.cls-26,.cls-27,.cls-28,.cls-29,.cls-30,.cls-31,.cls-32,.cls-33,.cls-34,.cls-35{fill:#2b2417;}.cls-4{font-size:6.2px;}.cls-4,.cls-5,.cls-6,.cls-7,.cls-8,.cls-9,.cls-10,.cls-11,.cls-12,.cls-13,.cls-14,.cls-15,.cls-16,.cls-17,.cls-18,.cls-19,.cls-20,.cls-21,.cls-22,.cls-23,.cls-24,.cls-25,.cls-26,.cls-27,.cls-28,.cls-29,.cls-30,.cls-31,.cls-32,.cls-33,.cls-34,.cls-35{font-weight:300;}.cls-4,.cls-5,.cls-6,.cls-7,.cls-8,.cls-9,.cls-10,.cls-11,.cls-12,.cls-13,.cls-14,.cls-15,.cls-16,.cls-17,.cls-18,.cls-19,.cls-20,.cls-21,.cls-22,.cls-23,.cls-24,.cls-25,.cls-26,.cls-27,.cls-28,.cls-29,.cls-30,.cls-31,.cls-32,.cls-34,.cls-35{font-family:Larken-Light, Larken;}.cls-5{font-size:6.2px;}.cls-6{font-size:6.2px;}.cls-7{font-size:6.2px;}.cls-8{font-size:6.2px;}.cls-9{font-size:6.2px;}.cls-10{font-size:6.2px;}.cls-11{font-size:6.2px;}.cls-12{font-size:6.2px;}.cls-13{font-size:6.2px;}.cls-14{font-size:6.2px;}.cls-15{font-size:6.2px;}.cls-16{font-size:6.2px;}.cls-17{font-size:6.2px;}.cls-18{font-size:6.2px;}.cls-19{font-size:6.2px;}.cls-20{font-size:6.2px;}.cls-21{font-size:6.2px;}.cls-22{font-size:6.2px;}.cls-23{font-size:6.2px;}.cls-24{font-size:6.2px;}.cls-25{font-size:6.2px;}.cls-26{font-size:6.2px;}.cls-27{font-size:6.2px;}.cls-28{font-size:6.2px;}.cls-29{font-size:6.2px;}.cls-30{font-size:6.2px;}.cls-31{font-size:6.2px;}.cls-32{font-size:6.4px;}.cls-33{font-family:Poppins-Light, Poppins;font-size:5.2px;}.cls-36{clip-path:url(#clippath-1);}.cls-34{font-size:6.3px;}.cls-35{font-size:6.3px;}</style><clipPath id="clippath"><rect class="cls-1" width="101.47" height="101.47"/></clipPath><clipPath id="clippath-1"><rect class="cls-1" width="101.47" height="101.47"/></clipPath></defs><text class="cls-24" transform="translate(62.39 72.69) rotate(156.16)"><tspan x="0" y="0">a</tspan></text><text class="cls-21" transform="translate(59.55 73.93) rotate(161.63)"><tspan x="0" y="0">g</tspan></text><text class="cls-9" transform="translate(56.73 74.85) rotate(169.84)"><tspan x="0" y="0">e</tspan></text><text class="cls-22" transform="translate(53.73 75.37) rotate(175.34)"><tspan x="0" y="0">n</tspan></text><text class="cls-4" transform="translate(50.53 75.57) rotate(-176.33)"><tspan x="0" y="0">c</tspan></text><text class="cls-20" transform="translate(47.65 75.36) rotate(-170.69)"><tspan x="0" y="0">e</tspan></text><text class="cls-29" transform="translate(44.66 74.78) rotate(-165)"><tspan x="0" y="0"> </tspan></text><text class="cls-7" transform="translate(43.24 74.41) rotate(-159.24)"><tspan x="0" y="0">c</tspan></text><text class="cls-15" transform="translate(40.53 73.35) rotate(-153.45)"><tspan x="0" y="0">r</tspan></text><text class="cls-28" transform="translate(38.67 72.44) rotate(-147.65)"><tspan x="0" y="0">é</tspan></text><text class="cls-14" transform="translate(36.11 70.78) rotate(-141.87)"><tspan x="0" y="0">a</tspan></text><text class="cls-6" transform="translate(33.78 68.9) rotate(-133.31)"><tspan x="0" y="0">t</tspan></text><text class="cls-27" transform="translate(32.3 67.34) rotate(-130.48)"><tspan x="0" y="0">i</tspan></text><text class="cls-17" transform="translate(31.4 66.36) rotate(-124.88)"><tspan x="0" y="0">v</tspan></text><text class="cls-11" transform="translate(29.67 63.87) rotate(-119.34)"><tspan x="0" y="0">e</tspan></text><text class="cls-24" transform="translate(28.24 61.18) rotate(-113.84)"><tspan x="0" y="0"> </tspan></text><text class="cls-16" transform="translate(27.67 59.84) rotate(-111.1)"><tspan x="0" y="0">l</tspan></text><text class="cls-8" transform="translate(27.21 58.69) rotate(-105.63)"><tspan x="0" y="0">o</tspan></text><text class="cls-9" transform="translate(26.4 55.54) rotate(-100.16)"><tspan x="0" y="0">t</tspan></text><text class="cls-31" transform="translate(26.01 53.55) rotate(-91.9)"><tspan x="0" y="0">o</tspan></text><text class="cls-4" transform="translate(25.91 50.27) rotate(-86.33)"><tspan x="0" y="0">i</tspan></text><text class="cls-18" transform="translate(25.97 48.97) rotate(-83.52)"><tspan x="0" y="0">s</tspan></text><text class="cls-29" transform="translate(26.24 46.32) rotate(-75)"><tspan x="0" y="0">e</tspan></text><text class="cls-29" transform="translate(27.05 43.38) rotate(-72.13)"><tspan x="0" y="0"> </tspan></text><text class="cls-10" transform="translate(27.49 41.99) rotate(-66.35)"><tspan x="0" y="0"> </tspan></text><text class="cls-15" transform="translate(28.06 40.64) rotate(-63.45)"><tspan x="0" y="0"> </tspan></text><text class="cls-12" transform="translate(28.69 39.33) rotate(-60.55)"><tspan x="0" y="0">.</tspan></text><text class="cls-28" transform="translate(29.22 38.35) rotate(-57.65)"><tspan x="0" y="0"> </tspan></text><text class="cls-25" transform="translate(29.99 37.11) rotate(-54.76)"><tspan x="0" y="0"> </tspan></text><text class="cls-14" transform="translate(30.83 35.92) rotate(-51.87)"><tspan x="0" y="0"> </tspan></text><text class="cls-26" transform="translate(31.7 34.74) rotate(-46.15)"><tspan x="0" y="0">c</tspan></text><text class="cls-27" transform="translate(33.7 32.66) rotate(-40.48)"><tspan x="0" y="0">o</tspan></text><text class="cls-11" transform="translate(36.14 30.48) rotate(-29.34)"><tspan x="0" y="0">m</tspan></text><text class="cls-21" transform="translate(40.28 28.08) rotate(-18.37)"><tspan x="0" y="0">m</tspan></text><text class="cls-9" transform="translate(44.8 26.6) rotate(-10.16)"><tspan x="0" y="0">u</tspan></text><text class="cls-31" transform="translate(47.93 26.01) rotate(-1.9)"><tspan x="0" y="0">n</tspan></text><text class="cls-4" transform="translate(51.13 25.9) rotate(3.67)"><tspan x="0" y="0">i</tspan></text><text class="cls-18" transform="translate(52.45 25.97) rotate(6.48)"><tspan x="0" y="0">c</tspan></text><text class="cls-29" transform="translate(55.31 26.28) rotate(15)"><tspan x="0" y="0">a</tspan></text><text class="cls-7" transform="translate(58.21 27.05) rotate(20.76)"><tspan x="0" y="0">t</tspan></text><text class="cls-10" transform="translate(60.22 27.82) rotate(23.65)"><tspan x="0" y="0">i</tspan></text><text class="cls-12" transform="translate(61.45 28.31) rotate(29.45)"><tspan x="0" y="0">o</tspan></text><text class="cls-14" transform="translate(64.32 29.87) rotate(38.13)"><tspan x="0" y="0">n</tspan></text><text class="cls-23" transform="translate(66.83 31.86) rotate(41)"><tspan x="0" y="0"> </tspan></text><text class="cls-6" transform="translate(67.93 32.82) rotate(46.69)"><tspan x="0" y="0"> </tspan></text><text class="cls-27" transform="translate(68.94 33.86) rotate(49.52)"><tspan x="0" y="0">p</tspan></text><text class="cls-19" transform="translate(70.93 36.26) rotate(57.9)"><tspan x="0" y="0">r</tspan></text><text class="cls-11" transform="translate(72.1 38.12) rotate(60.66)"><tspan x="0" y="0">i</tspan></text><text class="cls-24" transform="translate(72.78 39.27) rotate(66.16)"><tspan x="0" y="0">n</tspan></text><text class="cls-21" transform="translate(74.01 42.16) rotate(71.63)"><tspan x="0" y="0">t</tspan></text><text class="cls-30" transform="translate(74.68 44.2) rotate(77.1)"><tspan x="0" y="0"> </tspan></text><text class="cls-9" transform="translate(75.01 45.62) rotate(79.84)"><tspan x="0" y="0"> </tspan></text><text class="cls-22" transform="translate(75.31 47.05) rotate(85.34)"><tspan x="0" y="0">d</tspan></text><text class="cls-5" transform="translate(75.55 50.27) rotate(90.88)"><tspan x="0" y="0">i</tspan></text><text class="cls-18" transform="translate(75.6 51.6) rotate(96.48)"><tspan x="0" y="0">g</tspan></text><text class="cls-20" transform="translate(75.23 54.61) rotate(99.31)"><tspan x="0" y="0">i</tspan></text><text class="cls-29" transform="translate(75.02 55.93) rotate(105)"><tspan x="0" y="0">t</tspan></text><text class="cls-7" transform="translate(74.49 58.02) rotate(110.76)"><tspan x="0" y="0">a</tspan></text><text class="cls-15" transform="translate(73.37 60.9) rotate(116.55)"><tspan x="0" y="0">l</tspan></text><text class="cls-12" transform="translate(72.84 62.01) rotate(119.45)"><tspan x="0" y="0">e</tspan></text><text class="cls-25" transform="translate(71.28 64.63) rotate(125.24)"><tspan x="0" y="0"> </tspan></text><text class="cls-14" transform="translate(70.42 65.81) rotate(128.13)"><tspan x="0" y="0"> </tspan></text><text class="cls-26" transform="translate(69.53 66.97) rotate(133.85)"><tspan x="0" y="0"> </tspan></text><text class="cls-6" transform="translate(68.54 68.03) rotate(136.69)"><tspan x="0" y="0"> </tspan></text><text class="cls-27" transform="translate(67.49 69.04) rotate(139.52)"><tspan x="0" y="0">.</tspan></text><text class="cls-13" transform="translate(66.65 69.78) rotate(142.33)"><tspan x="0" y="0"> </tspan></text><text class="cls-35" transform="translate(65.5 70.67) rotate(145.12)"><tspan x="0" y="0"> </tspan></text><text class="cls-34" transform="translate(64.34 71.47) rotate(147.9)"><tspan x="0" y="0"> </tspan></text><text class="cls-32" transform="translate(63.13 72.21) rotate(150.66)"><tspan x="0" y="0"> </tspan></text><text class="cls-33" transform="translate(63.13 72.21) rotate(150.66)"><tspan x="0" y="0"> </tspan></text><text class="cls-33" transform="translate(63.13 72.21) rotate(150.66)"><tspan x="0" y="0"> </tspan></text><g class="cls-2"><path class="cls-3" d="m57.18,49.49c-.07-.34-.14-.68-.22-1.01-.31-1.24-.81-2.39-1.53-3.44-.36-.52-.77-1-1.24-1.42-.99-.88-2.13-1.44-3.47-1.56-.08,0-.17-.02-.25-.05-.08-.03-.16-.08-.18-.17-.09-.28-.15-.55-.14-.84,0-.06.11-.18.17-.18.75-.05,1.49-.02,2.23.09,1.44.22,2.77.72,3.98,1.54,1.41.96,2.45,2.23,3.17,3.78.55,1.18.87,2.43.98,3.73.12,1.44-.01,2.87-.5,4.24-.7,1.99-1.94,3.57-3.69,4.74-.72.48-1.48.87-2.31,1.14-.14.04-.27.09-.41.14-.09.03-.25-.06-.28-.15-.09-.3-.16-.61-.15-.93,0-.06.03-.11.08-.14.17-.1.35-.2.53-.29.7-.37,1.28-.87,1.77-1.48.53-.66.91-1.39,1.17-2.19.25-.74.4-1.5.46-2.27.09-1.09.03-2.18-.18-3.26"/><path class="cls-3" d="m40.9,52.39c-.18-1.17-.24-2.34-.06-3.51.45-2.83,1.9-5,4.34-6.51.58-.36,1.2-.67,1.86-.88.19-.06.38-.13.57-.2.11-.04.24.03.28.13.11.27.15.55.15.84,0,.09-.06.17-.13.21-.09.06-.2.12-.3.17-1.09.54-1.91,1.36-2.51,2.4-.52.91-.83,1.89-.97,2.92-.15,1.03-.17,2.06-.02,3.09.08.54.17,1.08.29,1.61.26,1.13.68,2.19,1.26,3.19.35.6.76,1.15,1.24,1.64.44.46.94.85,1.49,1.16.6.35,1.25.57,1.94.67.2.03.4.05.59.09.09.02.15.08.18.17.1.3.17.61.15.93,0,.06-.1.17-.16.17-1.6.12-3.14-.15-4.61-.79-2.02-.89-3.5-2.36-4.51-4.31-.3-.59-.55-1.2-.72-1.84-.12-.44-.27-.88-.33-1.33"/></g><text class="cls-24" transform="translate(62.39 72.69) rotate(156.16)"><tspan x="0" y="0">a</tspan></text><text class="cls-21" transform="translate(59.55 73.93) rotate(161.63)"><tspan x="0" y="0">g</tspan></text><text class="cls-9" transform="translate(56.73 74.85) rotate(169.84)"><tspan x="0" y="0">e</tspan></text><text class="cls-22" transform="translate(53.73 75.37) rotate(175.34)"><tspan x="0" y="0">n</tspan></text><text class="cls-4" transform="translate(50.53 75.57) rotate(-176.33)"><tspan x="0" y="0">c</tspan></text><text class="cls-20" transform="translate(47.65 75.36) rotate(-170.69)"><tspan x="0" y="0">e</tspan></text><text class="cls-29" transform="translate(44.66 74.78) rotate(-165)"><tspan x="0" y="0"> </tspan></text><text class="cls-7" transform="translate(43.24 74.41) rotate(-159.24)"><tspan x="0" y="0">c</tspan></text><text class="cls-15" transform="translate(40.53 73.35) rotate(-153.45)"><tspan x="0" y="0">r</tspan></text><text class="cls-28" transform="translate(38.67 72.44) rotate(-147.65)"><tspan x="0" y="0">é</tspan></text><text class="cls-14" transform="translate(36.11 70.78) rotate(-141.87)"><tspan x="0" y="0">a</tspan></text><text class="cls-6" transform="translate(33.78 68.9) rotate(-133.31)"><tspan x="0" y="0">t</tspan></text><text class="cls-27" transform="translate(32.3 67.34) rotate(-130.48)"><tspan x="0" y="0">i</tspan></text><text class="cls-17" transform="translate(31.4 66.36) rotate(-124.88)"><tspan x="0" y="0">v</tspan></text><text class="cls-11" transform="translate(29.67 63.87) rotate(-119.34)"><tspan x="0" y="0">e</tspan></text><text class="cls-24" transform="translate(28.24 61.18) rotate(-113.84)"><tspan x="0" y="0"> </tspan></text><text class="cls-16" transform="translate(27.67 59.84) rotate(-111.1)"><tspan x="0" y="0">l</tspan></text><text class="cls-8" transform="translate(27.21 58.69) rotate(-105.63)"><tspan x="0" y="0">o</tspan></text><text class="cls-9" transform="translate(26.4 55.54) rotate(-100.16)"><tspan x="0" y="0">t</tspan></text><text class="cls-31" transform="translate(26.01 53.55) rotate(-91.9)"><tspan x="0" y="0">o</tspan></text><text class="cls-4" transform="translate(25.91 50.27) rotate(-86.33)"><tspan x="0" y="0">i</tspan></text><text class="cls-18" transform="translate(25.97 48.97) rotate(-83.52)"><tspan x="0" y="0">s</tspan></text><text class="cls-29" transform="translate(26.24 46.32) rotate(-75)"><tspan x="0" y="0">e</tspan></text><text class="cls-29" transform="translate(27.05 43.38) rotate(-72.13)"><tspan x="0" y="0"> </tspan></text><text class="cls-10" transform="translate(27.49 41.99) rotate(-66.35)"><tspan x="0" y="0"> </tspan></text><text class="cls-15" transform="translate(28.06 40.64) rotate(-63.45)"><tspan x="0" y="0"> </tspan></text><text class="cls-12" transform="translate(28.69 39.33) rotate(-60.55)"><tspan x="0" y="0">.</tspan></text><text class="cls-28" transform="translate(29.22 38.35) rotate(-57.65)"><tspan x="0" y="0"> </tspan></text><text class="cls-25" transform="translate(29.99 37.11) rotate(-54.76)"><tspan x="0" y="0"> </tspan></text><text class="cls-14" transform="translate(30.83 35.92) rotate(-51.87)"><tspan x="0" y="0"> </tspan></text><text class="cls-26" transform="translate(31.7 34.74) rotate(-46.15)"><tspan x="0" y="0">c</tspan></text><text class="cls-27" transform="translate(33.7 32.66) rotate(-40.48)"><tspan x="0" y="0">o</tspan></text><text class="cls-11" transform="translate(36.14 30.48) rotate(-29.34)"><tspan x="0" y="0">m</tspan></text><text class="cls-21" transform="translate(40.28 28.08) rotate(-18.37)"><tspan x="0" y="0">m</tspan></text><text class="cls-9" transform="translate(44.8 26.6) rotate(-10.16)"><tspan x="0" y="0">u</tspan></text><text class="cls-31" transform="translate(47.93 26.01) rotate(-1.9)"><tspan x="0" y="0">n</tspan></text><text class="cls-4" transform="translate(51.13 25.9) rotate(3.67)"><tspan x="0" y="0">i</tspan></text><text class="cls-18" transform="translate(52.45 25.97) rotate(6.48)"><tspan x="0" y="0">c</tspan></text><text class="cls-29" transform="translate(55.31 26.28) rotate(15)"><tspan x="0" y="0">a</tspan></text><text class="cls-7" transform="translate(58.21 27.05) rotate(20.76)"><tspan x="0" y="0">t</tspan></text><text class="cls-10" transform="translate(60.22 27.82) rotate(23.65)"><tspan x="0" y="0">i</tspan></text><text class="cls-12" transform="translate(61.45 28.31) rotate(29.45)"><tspan x="0" y="0">o</tspan></text><text class="cls-14" transform="translate(64.32 29.87) rotate(38.13)"><tspan x="0" y="0">n</tspan></text><text class="cls-23" transform="translate(66.83 31.86) rotate(41)"><tspan x="0" y="0"> </tspan></text><text class="cls-6" transform="translate(67.93 32.82) rotate(46.69)"><tspan x="0" y="0"> </tspan></text><text class="cls-27" transform="translate(68.94 33.86) rotate(49.52)"><tspan x="0" y="0">p</tspan></text><text class="cls-19" transform="translate(70.93 36.26) rotate(57.9)"><tspan x="0" y="0">r</tspan></text><text class="cls-11" transform="translate(72.1 38.12) rotate(60.66)"><tspan x="0" y="0">i</tspan></text><text class="cls-24" transform="translate(72.78 39.27) rotate(66.16)"><tspan x="0" y="0">n</tspan></text><text class="cls-21" transform="translate(74.01 42.16) rotate(71.63)"><tspan x="0" y="0">t</tspan></text><text class="cls-30" transform="translate(74.68 44.2) rotate(77.1)"><tspan x="0" y="0"> </tspan></text><text class="cls-9" transform="translate(75.01 45.62) rotate(79.84)"><tspan x="0" y="0"> </tspan></text><text class="cls-22" transform="translate(75.31 47.05) rotate(85.34)"><tspan x="0" y="0">d</tspan></text><text class="cls-5" transform="translate(75.55 50.27) rotate(90.88)"><tspan x="0" y="0">i</tspan></text><text class="cls-18" transform="translate(75.6 51.6) rotate(96.48)"><tspan x="0" y="0">g</tspan></text><text class="cls-20" transform="translate(75.23 54.61) rotate(99.31)"><tspan x="0" y="0">i</tspan></text><text class="cls-29" transform="translate(75.02 55.93) rotate(105)"><tspan x="0" y="0">t</tspan></text><text class="cls-7" transform="translate(74.49 58.02) rotate(110.76)"><tspan x="0" y="0">a</tspan></text><text class="cls-15" transform="translate(73.37 60.9) rotate(116.55)"><tspan x="0" y="0">l</tspan></text><text class="cls-12" transform="translate(72.84 62.01) rotate(119.45)"><tspan x="0" y="0">e</tspan></text><text class="cls-25" transform="translate(71.28 64.63) rotate(125.24)"><tspan x="0" y="0"> </tspan></text><text class="cls-14" transform="translate(70.42 65.81) rotate(128.13)"><tspan x="0" y="0"> </tspan></text><text class="cls-26" transform="translate(69.53 66.97) rotate(133.85)"><tspan x="0" y="0"> </tspan></text><text class="cls-6" transform="translate(68.54 68.03) rotate(136.69)"><tspan x="0" y="0"> </tspan></text><text class="cls-27" transform="translate(67.49 69.04) rotate(139.52)"><tspan x="0" y="0">.</tspan></text><text class="cls-13" transform="translate(66.65 69.78) rotate(142.33)"><tspan x="0" y="0"> </tspan></text><text class="cls-35" transform="translate(65.5 70.67) rotate(145.12)"><tspan x="0" y="0"> </tspan></text><text class="cls-34" transform="translate(64.34 71.47) rotate(147.9)"><tspan x="0" y="0"> </tspan></text><text class="cls-32" transform="translate(63.13 72.21) rotate(150.66)"><tspan x="0" y="0"> </tspan></text><text class="cls-33" transform="translate(63.13 72.21) rotate(150.66)"><tspan x="0" y="0"> </tspan></text><text class="cls-33" transform="translate(63.13 72.21) rotate(150.66)"><tspan x="0" y="0"> </tspan></text><g class="cls-36"><path class="cls-3" d="m57.18,49.49c-.07-.34-.14-.68-.22-1.01-.31-1.24-.81-2.39-1.53-3.44-.36-.52-.77-1-1.24-1.42-.99-.88-2.13-1.44-3.47-1.56-.08,0-.17-.02-.25-.05-.08-.03-.16-.08-.18-.17-.09-.28-.15-.55-.14-.84,0-.06.11-.18.17-.18.75-.05,1.49-.02,2.23.09,1.44.22,2.77.72,3.98,1.54,1.41.96,2.45,2.23,3.17,3.78.55,1.18.87,2.43.98,3.73.12,1.44-.01,2.87-.5,4.24-.7,1.99-1.94,3.57-3.69,4.74-.72.48-1.48.87-2.31,1.14-.14.04-.27.09-.41.14-.09.03-.25-.06-.28-.15-.09-.3-.16-.61-.15-.93,0-.06.03-.11.08-.14.17-.1.35-.2.53-.29.7-.37,1.28-.87,1.77-1.48.53-.66.91-1.39,1.17-2.19.25-.74.4-1.5.46-2.27.09-1.09.03-2.18-.18-3.26"/><path class="cls-3" d="m40.9,52.39c-.18-1.17-.24-2.34-.06-3.51.45-2.83,1.9-5,4.34-6.51.58-.36,1.2-.67,1.86-.88.19-.06.38-.13.57-.2.11-.04.24.03.28.13.11.27.15.55.15.84,0,.09-.06.17-.13.21-.09.06-.2.12-.3.17-1.09.54-1.91,1.36-2.51,2.4-.52.91-.83,1.89-.97,2.92-.15,1.03-.17,2.06-.02,3.09.08.54.17,1.08.29,1.61.26,1.13.68,2.19,1.26,3.19.35.6.76,1.15,1.24,1.64.44.46.94.85,1.49,1.16.6.35,1.25.57,1.94.67.2.03.4.05.59.09.09.02.15.08.18.17.1.3.17.61.15.93,0,.06-.1.17-.16.17-1.6.12-3.14-.15-4.61-.79-2.02-.89-3.5-2.36-4.51-4.31-.3-.59-.55-1.2-.72-1.84-.12-.44-.27-.88-.33-1.33"/></g></svg>