<?xml version="1.0" encoding="UTF-8"?><svg id="Calque_1" xmlns="http://www.w3.org/2000/svg" xmlns:xlink="http://www.w3.org/1999/xlink" viewBox="0 0 666.93 436.75"><defs><style>.cls-1,.cls-2{fill:none;}.cls-3{fill:#223d38;}.cls-4{fill:#eeeae1;}.cls-2{stroke:#223d38;stroke-width:.11px;}.cls-5{clip-path:url(#clippath-1);}.cls-6{clip-path:url(#clippath-3);}.cls-7{clip-path:url(#clippath-4);}.cls-8{clip-path:url(#clippath-2);}.cls-9{clip-path:url(#clippath-5);}.cls-10{fill:#a16d41;}.cls-11{clip-path:url(#clippath);}</style><clipPath id="clippath"><rect class="cls-1" y="11.64" width="144.88" height="86.89"/></clipPath><clipPath id="clippath-1"><rect class="cls-1" x="408.46" y="342.14" width="258.48" height="94.6"/></clipPath><clipPath id="clippath-2"><rect class="cls-1" x="460.15" y="0" width="77.55" height="70.75"/></clipPath><clipPath id="clippath-3"><rect class="cls-1" x="590.12" y=".74" width="75.93" height="69.28"/></clipPath><clipPath id="clippath-4"><rect class="cls-1" x="34.74" y="261.45" width="64.21" height="127.99"/></clipPath><clipPath id="clippath-5"><rect class="cls-1" x="225.99" y="153.08" width="140.04" height="127.77"/></clipPath></defs><g class="cls-11"><path class="cls-3" d="M97.49,54.61c-.06-1.52-.07-3.04-.18-4.55-.4-5.61-1.69-11-4.01-16.13-1.15-2.54-2.57-4.93-4.31-7.13-3.64-4.6-8.16-7.89-13.89-9.42-.36-.09-.73-.24-1.05-.42-.32-.19-.62-.46-.67-.87-.16-1.26-.21-2.52.06-3.77.06-.25.6-.69.85-.66,3.29.33,6.5,1.04,9.62,2.1,6.08,2.06,11.5,5.23,16.11,9.74,5.39,5.26,8.95,11.59,10.9,18.83,1.5,5.56,1.91,11.23,1.4,16.95-.58,6.37-2.25,12.45-5.41,18.05-4.57,8.11-11.15,14-19.67,17.74-3.49,1.53-7.11,2.66-10.9,3.17-.62.09-1.25.19-1.87.29-.43.07-1.05-.44-1.1-.86-.15-1.39-.24-2.77.07-4.15.06-.27.2-.48.45-.56.83-.29,1.67-.59,2.51-.86,3.3-1.06,6.23-2.78,8.82-5.07,2.79-2.45,5.01-5.36,6.78-8.61,1.65-3.02,2.86-6.2,3.74-9.52,1.24-4.68,1.78-9.45,1.73-14.29"/><path class="cls-3" d="M24.51,54.76c.11-5.21.73-10.35,2.43-15.3,4.11-11.96,12.1-20.26,23.82-24.96,2.82-1.13,5.73-1.99,8.75-2.41.88-.13,1.75-.29,2.62-.43.5-.08,1.04.31,1.13.76.26,1.25.25,2.51,0,3.76-.07.38-.38.68-.72.83-.46.21-.94.35-1.43.49-5.14,1.51-9.32,4.43-12.73,8.53-2.95,3.55-5.04,7.58-6.47,11.94-1.42,4.35-2.3,8.8-2.46,13.39-.09,2.41-.1,4.81.02,7.21.25,5.09,1.27,10.02,3.03,14.81,1.06,2.86,2.42,5.56,4.13,8.09,1.57,2.32,3.42,4.39,5.58,6.18,2.36,1.96,4.99,3.45,7.9,4.41.84.28,1.69.53,2.52.84.36.13.59.47.64.86.2,1.38.26,2.76-.07,4.14-.06.27-.58.66-.84.63-7.05-.73-13.54-3.04-19.42-6.98-8.09-5.43-13.41-12.93-16.3-22.18-.87-2.78-1.48-5.62-1.73-8.54-.18-2.02-.49-4.02-.42-6.05"/><path class="cls-3" d="M77.72,54.34v8.2c0,.37,0,.73.02,1.1.02.95.18,1.8.38,2.73.05.24.11.49.17.74.02.07-.08.18-.16.19-.04,0-.09.01-.13.01-.99,0-1.97,0-2.96,0-.07,0-.14-.02-.2-.04-.04-.01-.07-.06-.08-.1,0-.07,0-.14.01-.2.12-.47.22-.94.31-1.42.13-.75.23-1.49.23-2.26,0-.23,0-.46,0-.69v-13.5c0-.21,0-.41,0-.62,0-.88-.11-1.74-.29-2.59-.09-.42-.24-.84-.37-1.25-.02-.05.04-.13.1-.15.18-.04.36-.09.54-.11.27-.04.55-.07.82-.13.46-.03.9-.18,1.36-.19.04,0,.09.01.13.02.05.01.08.04.09.09.01.04.03.09.03.13,0,.23.01.46.01.69v9.37"/><path class="cls-3" d="M61.83,54.36c0,2.78,0,5.56,0,8.34,0,.67.04,1.33.12,2,.07.6.18,1.18.32,1.76.05.2.09.4.14.6.02.09-.04.2-.13.21-.04,0-.09.02-.13.02h-2.96s-.09,0-.14-.01c-.08,0-.18-.11-.17-.19.01-.09.02-.18.04-.27.12-.47.22-.94.3-1.41.13-.8.22-1.59.22-2.4,0-3.01,0-6.02,0-9.03,0-1.72,0-3.45,0-5.17,0-.71-.05-1.42-.15-2.13-.09-.61-.23-1.22-.44-1.8-.03-.09-.07-.17-.08-.26,0-.06.04-.13.11-.15.16-.04.31-.09.47-.1.32-.04.63-.1.95-.15.25-.04.5-.07.75-.12.2-.04.41-.07.62-.06.04,0,.14.09.14.13,0,.07.02.13.02.2,0,.23,0,.46,0,.69v9.31"/><path class="cls-3" d="M69.8,57.96v4.69c0,.25,0,.51,0,.76,0,.34.03.69.09,1.03.05.34.08.68.15,1.02.09.43.17.85.28,1.28.02.09.03.18.04.27,0,.08-.08.18-.16.19-.02,0-.04,0-.07,0-.04,0-.09,0-.14,0-.89,0-1.79,0-2.69,0-.07,0-.13,0-.2,0-.12,0-.22-.12-.2-.23.01-.09.02-.18.04-.27.14-.55.23-1.13.33-1.69.02-.13.04-.27.05-.41.02-.2.03-.41.06-.62.04-.32.05-.64.05-.96.01-2.37.02-4.73.03-7.1,0-.81-.09-1.6-.23-2.4-.08-.47-.18-.94-.31-1.41-.02-.09-.04-.18-.02-.27.01-.05.03-.09.08-.1.04,0,.09-.03.13-.03.8,0,1.61,0,2.41,0,.04,0,.09,0,.13.02.04.02.08.06.09.09.05.16.04.32.04.48v5.65Z"/><path class="cls-3" d="M70.4,45.83c0,.45-.16.82-.46,1.13-.23.23-.5.39-.81.49-.67.2-1.26.07-1.82-.33-.33-.24-.53-.56-.63-.95-.05-.2-.06-.41,0-.61.16-.66.58-1.07,1.2-1.3.09-.03.18-.04.27-.07.27-.07.54-.07.81,0,.22.05.44.13.64.24.13.09.26.19.37.3.29.31.44.69.44,1.1"/><path class="cls-3" d="M13.5,52.7v11.5c0,.58,0,1.15,0,1.73,0,1.26-.06,2.52-.21,3.77-.11.94-.22,1.88-.4,2.8-.29,1.44-.69,2.86-1.26,4.21-.35.82-.77,1.61-1.26,2.36-1.27,1.93-2.96,3.39-5.08,4.34-1.59.71-3.25,1.17-5,1.29-.09,0-.18-.06-.26-.11-.02-.02-.02-.12,0-.15.11-.11.23-.21.35-.3.38-.27.78-.53,1.16-.81,2.29-1.71,3.92-3.92,4.93-6.59.51-1.33.84-2.7,1.06-4.1.21-1.3.32-2.61.35-3.92.04-1.31.08-2.62.08-3.94,0-5.88,0-11.76,0-17.64,0-1.11-.05-2.2-.11-3.3-.07-1.32-.29-2.61-.52-3.9-.12-.67-.29-1.33-.42-2-.07-.36-.11-.72-.16-1.08-.02-.11.18-.32.3-.33.05,0,.1-.02.16-.02h5.67c.1,0,.22.02.31.07.09.04.17.13.21.22.05.09.07.2.07.3,0,.53.02,1.05.02,1.57v14.02"/><path class="cls-3" d="M10.75,26.98c-1.43,0-2.41-.33-3.27-.98-.73-.55-1.21-1.29-1.43-2.18-.12-.46-.13-.94-.01-1.4.38-1.56,1.38-2.53,2.9-2.99.25-.08.51-.14.76-.18.2-.03.42-.05.62-.04,1.24.06,2.35.46,3.23,1.38.72.76,1.04,1.67,1,2.71-.04.87-.36,1.62-.95,2.26-.55.59-1.2,1-1.97,1.22-.4.11-.8.22-.88.22"/><path class="cls-3" d="M126.32,53.53v-10.87c0-.47.03-.94-.05-1.41-.02-.11-.2-.32-.3-.33-.26-.02-.52-.06-.78-.06-1.1,0-2.21,0-3.31,0-.26,0-.52-.02-.78-.04-.15,0-.4-.26-.4-.43-.02-.21-.02-.42-.01-.63,0-.26.2-.52.44-.59.45-.13.91-.26,1.35-.4,2.83-.91,4.95-2.68,6.43-5.25.55-.96.98-1.97,1.38-3,.13-.34.24-.69.37-1.04.12-.34.49-.53.9-.37.16.07.26.2.28.35.04.31.04.63.04.94,0,2,0,3.99,0,5.99,0,.42,0,.84,0,1.26,0,.67.18.79.86.79.42,0,.84,0,1.26,0,2.42,0,4.83,0,7.25,0,.37,0,.73.02,1.1.04.14,0,.38.28.4.44.04.47.05.95,0,1.42,0,.05-.04.1-.05.15-.02.1-.23.32-.32.33-.31.02-.63.05-.94.05-2.52,0-5.04,0-7.56,0-.47,0-.94,0-1.42.02-.1,0-.22.02-.31.07-.09.05-.16.14-.21.23-.04.09-.05.2-.06.31-.01.42-.02.84-.02,1.26,0,6.98,0,13.97,0,20.95,0,.69.01,1.37.07,2.05.07.84.32,1.65.73,2.39.55,1.01,1.36,1.72,2.43,2.13.39.15.79.27,1.21.33,2.19.3,4.28-.05,6.32-.86.69-.27,1.32-.64,1.99-.95.11-.05.2,0,.24.11.02.04,0,.11-.02.15-.17.27-.32.54-.51.79-1.57,2.01-3.59,3.36-6.03,4.08-.91.27-1.83.45-2.79.44-.47,0-.94,0-1.42-.02-1.12-.04-2.18-.33-3.19-.8-1.53-.71-2.66-1.84-3.44-3.34-.47-.89-.76-1.84-.93-2.83-.17-.99-.22-1.98-.22-2.98,0-3.63,0-7.25,0-10.87"/></g><g class="cls-5"><path class="cls-3" d="M619.86,414.77s-.01-.03-.01-.05c0-.04.01-.08.07-.09,1.22-.28,1.89-1.17,1.89-2.59,0-1.81-1.16-2.67-2.57-2.67h-3.48c-.25,0-.49.11-.49.42v8.36c0,.37.28.46.53.46s.53-.09.53-.46v-3.33c0-.09.03-.12.12-.12h2.04c.11,0,.15,0,.21.12l2.14,3.57c.09.16.23.23.36.23.27,0,.61-.24.61-.5,0-.08-.03-.16-.08-.25l-1.87-3.09ZM616.45,413.73c-.09,0-.12-.03-.12-.12v-3.15c0-.09.03-.12.12-.12h2.79c.89,0,1.48.55,1.48,1.69s-.57,1.69-1.56,1.69h-2.71ZM608.85,414.4c0-.09.03-.12.12-.12h3.55c.32,0,.44-.24.44-.49s-.12-.49-.44-.49h-3.55c-.09,0-.12-.03-.12-.12v-2.72c0-.09.03-.12.12-.12h4.11c.32,0,.44-.24.44-.49s-.12-.49-.44-.49h-4.8c-.25,0-.49.11-.49.42v8.35c0,.32.24.42.49.42h4.94c.32,0,.44-.24.44-.49s-.12-.49-.44-.49h-4.24c-.09,0-.12-.03-.12-.12v-3.07ZM604.58,418.15c0,.37.28.46.53.46.27,0,.53-.09.53-.46v-8.38c0-.37-.27-.46-.53-.46-.25,0-.53.09-.53.46v8.38ZM599.2,409.78c0-.37-.27-.46-.53-.46-.25,0-.53.09-.53.46v8.36c0,.32.24.42.49.42h4.24c.32,0,.44-.24.44-.49s-.12-.49-.44-.49h-3.55c-.09,0-.12-.03-.12-.12v-7.69ZM591.73,414.4c0-.09.03-.12.12-.12h3.55c.32,0,.44-.24.44-.49s-.12-.49-.44-.49h-3.55c-.09,0-.12-.03-.12-.12v-2.72c0-.09.03-.12.12-.12h4.11c.32,0,.44-.24.44-.49s-.12-.49-.44-.49h-4.8c-.25,0-.49.11-.49.42v8.35c0,.32.24.42.49.42h4.94c.32,0,.44-.24.44-.49s-.12-.49-.44-.49h-4.24c-.09,0-.12-.03-.12-.12v-3.07ZM585.49,410.34c.09,0,.12.03.12.12v7.69c0,.37.27.46.53.46s.54-.09.54-.46v-7.69c0-.09.04-.12.12-.12h2.15c.33,0,.46-.24.46-.47,0-.25-.12-.5-.46-.5h-5.6c-.33,0-.45.25-.45.5s.12.47.45.47h2.15ZM581.65,416.45c.08,0,.15.04.19.15l.68,1.7c.09.24.25.32.43.32.28,0,.59-.18.59-.46,0-.08-.01-.16-.05-.26l-3.16-7.94c-.23-.55-.54-.63-.82-.63s-.59.08-.81.63l-3.16,7.94c-.04.11-.05.18-.05.26,0,.31.33.46.59.46.17,0,.33-.08.43-.32l.68-1.7c.04-.11.11-.15.19-.15h4.3ZM577.74,415.47s-.08-.01-.08-.07c0-.03.03-.09.03-.09l1.71-4.48c.04-.09.05-.2.11-.2s.07.11.11.2l1.71,4.48s.03.07.03.09c0,.05-.04.07-.08.07h-3.52Z"/><path class="cls-3" d="M512.01,376.26c0,9.02,0,18.04,0,27.06,0,1.21.03,2.42.06,3.64.08,3.13.59,5.95,1.25,8.99.18.81.37,1.62.56,2.43.05.24-.26.6-.53.62-.15.01-.3.04-.45.04-3.26,0-6.52,0-9.78,0-.22,0-.46-.06-.66-.15-.12-.05-.24-.21-.26-.34-.03-.22-.02-.46.04-.67.39-1.54.73-3.09,1.01-4.66.44-2.47.77-4.94.77-7.45,0-.76,0-1.52,0-2.27v-44.57c0-.68,0-1.37,0-2.05.03-2.89-.37-5.74-.98-8.56-.3-1.41-.8-2.76-1.23-4.13-.06-.18.12-.45.34-.5.59-.13,1.18-.3,1.78-.38.9-.12,1.81-.22,2.69-.44,1.51-.11,2.98-.57,4.5-.62.15,0,.29.05.44.07.17.03.27.13.31.3.03.15.1.29.11.43.02.76.03,1.52.03,2.27,0,10.31,0,20.62,0,30.92"/><path class="cls-3" d="M636.56,388.93c0-5.23,0-10.46,0-15.69,0-.68.05-1.37-.08-2.04-.03-.15-.29-.46-.43-.47-.38-.03-.75-.08-1.13-.09-1.59,0-3.18,0-4.78,0-.38,0-.76-.04-1.14-.06-.22-.01-.57-.38-.58-.62-.02-.3-.03-.61-.02-.91.01-.38.3-.75.64-.85.65-.2,1.31-.38,1.96-.59,4.08-1.31,7.15-3.87,9.29-7.57.8-1.39,1.42-2.85,1.99-4.33.19-.49.36-1,.54-1.5.17-.49.7-.77,1.3-.53.24.09.38.29.4.51.05.45.06.91.06,1.36,0,2.88,0,5.76,0,8.64,0,.61,0,1.21,0,1.82,0,.97.26,1.14,1.25,1.14.61,0,1.21,0,1.82,0,3.49,0,6.97,0,10.46,0,.53,0,1.06.04,1.59.05.21,0,.55.4.58.63.07.68.08,1.36,0,2.04,0,.07-.06.14-.07.21-.03.14-.34.46-.46.47-.45.03-.91.08-1.36.08-3.64,0-7.28,0-10.92,0-.68,0-1.36,0-2.05.03-.15,0-.31.02-.44.09-.12.07-.24.2-.3.33-.07.13-.08.29-.08.44-.01.61-.02,1.21-.02,1.82,0,10.08,0,20.17,0,30.25,0,.99.02,1.97.1,2.95.1,1.22.46,2.38,1.05,3.46.79,1.45,1.97,2.48,3.52,3.08.56.22,1.14.39,1.75.48,3.16.44,6.18-.07,9.13-1.24.99-.39,1.91-.92,2.87-1.37.15-.07.29,0,.35.16.02.06,0,.16-.03.22-.24.38-.47.77-.75,1.13-2.26,2.91-5.19,4.85-8.7,5.89-1.31.39-2.65.65-4.03.64-.68,0-1.36,0-2.05-.02-1.61-.07-3.14-.47-4.6-1.15-2.21-1.03-3.85-2.66-4.96-4.82-.67-1.29-1.1-2.65-1.34-4.09-.24-1.43-.32-2.86-.32-4.3.01-5.23,0-10.46,0-15.69"/><path class="cls-3" d="M560.59,376.35c0,9.18.01,18.36,0,27.53,0,2.21.14,4.4.38,6.58.22,1.96.59,3.9,1.05,5.81.16.66.31,1.33.46,1.99.07.3-.15.65-.42.69-.15.02-.3.08-.44.08-3.26,0-6.52,0-9.78,0-.15,0-.3-.03-.45-.04-.26-.02-.58-.37-.55-.62.04-.3.05-.61.13-.9.39-1.54.72-3.1.99-4.67.44-2.62.73-5.25.73-7.92-.01-9.94,0-19.87,0-29.81,0-5.69-.03-11.38,0-17.07.02-2.36-.17-4.7-.5-7.03-.29-2.03-.77-4.02-1.46-5.95-.1-.28-.23-.56-.26-.86-.02-.18.15-.45.36-.5.52-.12,1.03-.28,1.55-.34,1.05-.13,2.1-.33,3.15-.5.82-.13,1.65-.23,2.47-.39.67-.13,1.34-.23,2.03-.18.14,0,.46.27.48.41.03.23.07.45.08.68.01.76.01,1.52.01,2.27v30.72"/><path class="cls-3" d="M427.95,390.53v16.6c0,.83,0,1.67,0,2.5,0,1.82-.08,3.63-.31,5.45-.16,1.35-.32,2.71-.58,4.05-.41,2.09-1,4.12-1.83,6.08-.5,1.19-1.1,2.32-1.82,3.4-1.84,2.79-4.28,4.9-7.33,6.27-2.3,1.03-4.7,1.7-7.22,1.87-.12,0-.26-.08-.38-.16-.03-.02-.03-.17,0-.21.16-.16.33-.31.51-.44.56-.39,1.13-.76,1.68-1.17,3.3-2.47,5.66-5.67,7.12-9.52.73-1.92,1.21-3.9,1.54-5.93.3-1.88.46-3.76.51-5.66.05-1.89.12-3.79.12-5.68.01-8.49,0-16.98,0-25.47,0-1.59-.07-3.18-.15-4.77-.1-1.9-.42-3.77-.76-5.63-.18-.97-.42-1.92-.61-2.89-.1-.52-.15-1.04-.23-1.57-.02-.15.26-.46.43-.47.08,0,.15-.02.23-.02,2.73,0,5.46,0,8.19,0,.15,0,.31.02.44.09.13.07.24.19.31.32.07.13.09.29.1.44.02.76.02,1.52.03,2.27v20.24"/><path class="cls-3" d="M483.62,392.5c-.03-.91-.04-1.82-.11-2.73-.24-3.36-1.01-6.59-2.4-9.66-.69-1.52-1.54-2.95-2.58-4.27-2.18-2.76-4.89-4.73-8.32-5.64-.22-.06-.44-.14-.63-.26-.19-.11-.37-.27-.4-.52-.1-.75-.13-1.51.03-2.26.03-.15.36-.41.51-.39,1.97.2,3.89.62,5.76,1.26,3.64,1.24,6.89,3.14,9.65,5.83,3.23,3.15,5.36,6.94,6.53,11.28.9,3.33,1.15,6.73.84,10.15-.34,3.82-1.35,7.46-3.24,10.82-2.73,4.86-6.68,8.39-11.78,10.63-2.09.92-4.26,1.59-6.53,1.9-.38.05-.75.11-1.12.17-.25.04-.63-.26-.66-.51-.09-.83-.14-1.66.04-2.49.04-.16.12-.29.27-.34.5-.18,1-.35,1.5-.51,1.98-.63,3.73-1.67,5.29-3.03,1.67-1.47,3-3.21,4.06-5.16.99-1.81,1.71-3.71,2.24-5.7.74-2.8,1.07-5.66,1.04-8.56"/><path class="cls-3" d="M439.9,392.58c.07-3.12.44-6.2,1.46-9.17,2.46-7.16,7.25-12.13,14.27-14.95,1.69-.68,3.43-1.19,5.25-1.45.52-.07,1.04-.17,1.57-.26.3-.05.62.19.68.46.15.75.15,1.5,0,2.25-.05.23-.23.4-.43.5-.27.12-.56.21-.85.3-3.08.9-5.58,2.66-7.63,5.11-1.77,2.12-3.02,4.54-3.87,7.15-.85,2.6-1.38,5.27-1.47,8.02-.05,1.44-.06,2.88.01,4.32.15,3.05.76,6.01,1.82,8.87.63,1.71,1.45,3.33,2.47,4.85.94,1.39,2.05,2.63,3.34,3.7,1.41,1.17,2.99,2.07,4.73,2.64.5.16,1.01.31,1.51.5.22.08.35.28.39.52.12.83.15,1.66-.04,2.48-.04.16-.34.39-.5.38-4.22-.44-8.11-1.82-11.64-4.18-4.85-3.25-8.03-7.74-9.76-13.29-.52-1.66-.89-3.37-1.04-5.11-.1-1.21-.29-2.41-.25-3.63"/><path class="cls-3" d="M536.3,388.51v15.47c0,.83,0,1.67.02,2.5.02,1.14.1,2.27.28,3.4.18,1.12.26,2.25.49,3.37.28,1.41.56,2.83.92,4.22.08.29.1.6.14.9.04.25-.27.6-.54.62-.08,0-.15.02-.23.02-.15.01-.3.03-.46.03-2.96,0-5.92,0-8.87,0-.23,0-.46-.03-.68-.04-.4-.03-.7-.38-.65-.75.04-.3.06-.61.13-.9.47-1.84.76-3.71,1.09-5.58.08-.45.12-.9.17-1.35.07-.68.12-1.36.2-2.04.13-1.06.17-2.12.18-3.18.03-7.81.05-15.62.08-23.43.01-2.66-.3-5.29-.75-7.91-.27-1.57-.61-3.12-1.01-4.67-.08-.29-.12-.59-.05-.9.04-.17.1-.29.27-.32.15-.03.29-.1.44-.1,2.65,0,5.31,0,7.96,0,.15,0,.31.02.44.09.13.07.27.19.31.31.17.51.12,1.05.12,1.58,0,6.22,0,12.44,0,18.66Z"/><path class="cls-3" d="M619.38,399.83c-1.06,0-2.12,0-3.18,0-.23,0-.45-.03-.66-.13-.16-.08-.23-.16-.24-.35-.03-.62.19-1.19.23-1.8s.11-1.21.18-1.81c.25-2.12.24-4.24,0-6.35-.16-1.36-.31-2.71-.62-4.04-.58-2.53-1.46-4.94-2.76-7.19-.76-1.32-1.66-2.54-2.71-3.64-1.93-2.01-4.2-3.47-6.88-4.25-.29-.08-.58-.17-.85-.31-.2-.1-.36-.29-.38-.53-.08-.76-.1-1.51.03-2.27.02-.15.34-.4.5-.38,4.3.46,8.26,1.87,11.86,4.26,2.23,1.48,4.17,3.28,5.79,5.41,2.24,2.94,3.7,6.24,4.5,9.85.56,2.54.69,5.1.6,7.69-.06,1.67-.22,3.33-.61,4.96-.15.62-.44.85-1.13.87-.38,0-.76,0-1.14,0-.84,0-1.67,0-2.5,0h0Z"/><path class="cls-3" d="M576.94,399.84c-1.02-.04-2.24.07-3.44-.07-.26-.03-.38-.22-.53-.39-.05-.05-.07-.13-.09-.21-.29-1.33-.55-2.67-.62-4.03-.08-1.59-.1-3.18-.01-4.77.2-3.44,1.01-6.73,2.5-9.84,2.75-5.72,7.15-9.69,13.02-12.04,1.76-.7,3.57-1.25,5.46-1.49.6-.08,1.17-.3,1.79-.24.16.02.28.08.35.24.03.07.08.13.08.2.11.75.11,1.51,0,2.26-.02.16-.1.29-.24.36-.27.13-.54.28-.83.36-3.35.87-6,2.8-8.16,5.45-1.01,1.24-1.83,2.6-2.51,4.04-.85,1.78-1.48,3.64-1.9,5.57-.54,2.53-.85,5.08-.82,7.66,0,1.06.06,2.12.21,3.17.14.97.25,1.95.37,2.93.07.53-.18.79-.8.8-.38,0-.76,0-1.14.01h-2.69"/><path class="cls-3" d="M423.97,353.39c-2.07,0-3.48-.48-4.72-1.42-1.06-.8-1.74-1.87-2.07-3.15-.17-.67-.18-1.35-.02-2.02.55-2.25,2-3.65,4.19-4.32.36-.11.73-.2,1.1-.26.3-.05.6-.08.9-.07,1.8.08,3.39.66,4.66,1.99,1.04,1.1,1.51,2.41,1.44,3.92-.06,1.26-.52,2.34-1.37,3.26-.78.85-1.73,1.44-2.85,1.76-.58.16-1.16.32-1.27.32"/><path class="cls-3" d="M538.27,347.76c0,1.48-.52,2.7-1.52,3.71-.76.77-1.65,1.29-2.69,1.6-2.19.68-4.17.22-5.99-1.09-1.08-.78-1.75-1.86-2.08-3.14-.17-.67-.18-1.35-.03-2.02.51-2.17,1.9-3.54,3.96-4.28.28-.1.58-.15.87-.23.9-.23,1.79-.22,2.69,0,.74.18,1.45.42,2.1.82.45.28.86.61,1.23,1,.98,1.03,1.48,2.25,1.46,3.63"/><path class="cls-2" d="M664.07,364.67c1.51,0,2.73-1.22,2.73-2.73s-1.22-2.72-2.73-2.72-2.73,1.22-2.73,2.72,1.22,2.73,2.73,2.73Z"/><path class="cls-3" d="M663.48,360.86h.52c.21,0,.37.05.47.14s.15.23.15.4-.05.3-.15.4c-.1.1-.26.15-.46.15h-.52v-1.08ZM664.92,363.25l-.67-1.1c.21-.04.37-.13.48-.26.11-.13.16-.29.16-.48,0-.23-.08-.41-.23-.55-.15-.14-.37-.21-.66-.21h-.78v2.6h.26v-1.09h.48l.64,1.09h.31Z"/></g><g class="cls-8"><path class="cls-10" d="M490.67.05c-4.07.22-7.82.69-11.42,2.06-3.94,1.51-7.5,3.76-10.59,6.83-3.71,3.69-6.08,8.36-7.38,13.63-1.51,6.1-1.52,12.28.03,18.42,1.45,5.76,4.27,10.6,8.29,14.63,3.79,3.79,8.13,6.65,12.7,9.12,5.63,3.04,11.56,4.97,17.77,5.69,6.53.76,12.98.28,19.07-2.47,10.64-4.84,16.63-13.75,18.25-26.25.7-5.4.22-10.74-1.3-15.96-2.15-7.34-6.37-12.91-12.24-17.04-2.82-1.99-5.84-3.51-9.02-4.62-4.59-1.6-9.24-2.91-14.02-3.6-3.46-.5-6.93-.53-10.13-.42"/><path class="cls-4" d="M501.45,40.66c-.14,0-.26.01-.35.01-.63,0-1.34-.17-2.13-.49-.79-.33-1.46-.73-1.99-1.21-1.55-1.37-2.33-3.08-2.33-5.12,0-1.87.67-3.47,1.99-4.79,1.33-1.32,2.94-1.98,4.83-1.98l-.02,13.59Z"/></g><g class="cls-6"><path class="cls-10" d="M636.17.79c3.98.22,7.66.67,11.18,2.01,3.86,1.48,7.35,3.68,10.37,6.69,3.64,3.62,5.95,8.18,7.23,13.34,1.48,5.98,1.49,12.02-.03,18.04-1.42,5.64-4.18,10.38-8.11,14.32-3.71,3.71-7.96,6.51-12.44,8.93-5.52,2.98-11.32,4.86-17.4,5.57-6.39.75-12.71.28-18.67-2.42-10.42-4.74-16.28-13.47-17.87-25.71-.69-5.29-.22-10.52,1.28-15.63,2.1-7.19,6.24-12.64,11.99-16.68,2.76-1.95,5.72-3.44,8.83-4.53,4.49-1.57,9.05-2.85,13.72-3.53,3.39-.49,6.78-.52,9.92-.41"/><path class="cls-4" d="M625.61,40.55c.14,0,.25.01.35.01.62,0,1.31-.16,2.08-.48.77-.32,1.42-.71,1.95-1.19,1.52-1.34,2.28-3.01,2.28-5.01,0-1.83-.65-3.4-1.95-4.69-1.3-1.29-2.88-1.94-4.73-1.94l.02,13.3Z"/></g><g class="cls-7"><path class="cls-4" d="M34.94,389.35c1.34.06,2.43.12,3.28.12,5.95,0,12.64-1.58,20.05-4.62,7.47-3.1,13.73-6.86,18.77-11.42,14.58-12.94,21.87-28.98,21.87-48.17,0-17.68-6.2-32.68-18.71-45.14-12.51-12.45-27.64-18.65-45.44-18.65l.18,127.87Z"/></g><g class="cls-9"><path class="cls-3" d="M310.91,153.17c7.34.4,14.12,1.23,20.63,3.72,7.11,2.72,13.54,6.79,19.11,12.33,6.7,6.67,10.97,15.09,13.33,24.62,2.72,11.02,2.74,22.17-.05,33.27-2.61,10.39-7.7,19.14-14.97,26.4-6.85,6.85-14.68,12.01-22.93,16.47-10.17,5.49-20.87,8.97-32.08,10.27-11.78,1.37-23.44.51-34.43-4.48-19.22-8.72-30.02-24.83-32.96-47.41-1.27-9.75-.4-19.39,2.35-28.82,3.88-13.27,11.51-23.31,22.11-30.77,5.1-3.59,10.55-6.34,16.29-8.34,8.29-2.89,16.69-5.26,25.31-6.5,6.24-.9,12.51-.96,18.29-.77"/><path class="cls-4" d="M306.85,223.84c-.02-.58-.03-1.16-.07-1.74-.15-2.14-.64-4.21-1.53-6.17-.44-.97-.99-1.88-1.65-2.73-1.39-1.76-3.12-3.02-5.31-3.6-.14-.04-.28-.09-.4-.16-.12-.07-.24-.18-.26-.33-.06-.48-.08-.96.02-1.44.02-.1.23-.26.33-.25,1.26.13,2.48.4,3.68.8,2.33.79,4.4,2,6.16,3.72,2.06,2.01,3.42,4.43,4.17,7.2.57,2.13.73,4.3.54,6.48-.22,2.44-.86,4.76-2.07,6.9-1.75,3.1-4.27,5.35-7.52,6.78-1.33.59-2.72,1.02-4.17,1.21-.24.03-.48.07-.72.11-.16.02-.4-.16-.42-.33-.06-.53-.09-1.06.03-1.59.02-.1.08-.18.18-.22.32-.11.64-.23.96-.33,1.26-.4,2.38-1.06,3.37-1.94,1.07-.94,1.91-2.05,2.59-3.29.63-1.15,1.09-2.37,1.43-3.64.47-1.79.68-3.61.66-5.46"/><path class="cls-4" d="M278.95,223.9c.04-1.99.28-3.96.93-5.85,1.57-4.57,4.62-7.75,9.11-9.54,1.08-.43,2.19-.76,3.35-.92.34-.05.67-.11,1-.16.19-.03.4.12.43.29.1.48.1.96,0,1.44-.03.14-.14.26-.27.32-.18.08-.36.13-.55.19-1.97.58-3.57,1.7-4.87,3.26-1.13,1.36-1.93,2.9-2.47,4.57-.55,1.66-.88,3.37-.94,5.12-.03.92-.04,1.84,0,2.76.1,1.95.48,3.83,1.16,5.66.4,1.09.93,2.13,1.58,3.09.6.89,1.31,1.68,2.13,2.36.91.75,1.91,1.32,3.02,1.69.32.1.65.2.96.32.14.05.23.18.25.33.07.53.1,1.06-.03,1.58-.02.1-.22.25-.32.24-2.7-.28-5.18-1.16-7.43-2.67-3.09-2.07-5.13-4.94-6.23-8.48-.33-1.06-.57-2.15-.66-3.26-.07-.77-.19-1.54-.16-2.32"/><path class="cls-4" d="M299.29,223.74v3.13c0,.14,0,.28,0,.42.01.36.07.69.14,1.04.02.09.04.19.06.28,0,.03-.03.07-.06.07-.02,0-.03,0-.05,0h-1.13s-.05,0-.08-.02c-.01,0-.03-.02-.03-.04,0-.02,0-.05,0-.08.04-.18.08-.36.12-.54.05-.29.09-.57.09-.86v-5.66c0-.34-.04-.67-.11-.99-.03-.16-.09-.32-.14-.48,0-.02.01-.05.04-.06.07-.02.13-.03.21-.04.1-.01.21-.03.31-.05.18-.01.34-.07.52-.07.02,0,.04,0,.05,0,.02,0,.03.02.03.04,0,.02.01.03.01.05,0,.09,0,.18,0,.26v3.58"/><path class="cls-4" d="M293.21,223.75v3.19c0,.25.02.51.04.76.02.23.07.45.12.67.02.08.04.15.05.23,0,.03-.02.07-.05.08-.02,0-.04.01-.05.01h-1.13s-.04,0-.05,0c-.03,0-.07-.04-.06-.07,0-.03,0-.07.01-.1.05-.18.08-.36.11-.54.05-.3.09-.61.08-.92v-3.45c0-.66,0-1.32,0-1.98,0-.27-.02-.55-.06-.81-.03-.23-.09-.46-.17-.69-.01-.03-.03-.06-.03-.1,0-.02.02-.05.04-.06.06-.01.12-.03.18-.04.12-.02.24-.04.36-.06.1-.02.19-.03.29-.05.08-.01.16-.03.24-.02.02,0,.05.03.06.05,0,.03,0,.05,0,.08,0,.09,0,.18,0,.26v3.56"/><path class="cls-4" d="M296.26,225.12v1.79c0,.1,0,.2,0,.29,0,.13.01.26.03.39.02.13.03.26.06.39.03.16.06.33.11.49,0,.03.01.07.01.1,0,.03-.03.07-.06.07-.01,0-.02,0-.03,0-.02,0-.03,0-.05,0h-1.03s-.05,0-.08,0c-.05,0-.08-.05-.08-.09,0-.04,0-.07.02-.1.05-.21.09-.43.12-.65.01-.05.01-.1.02-.16,0-.08.01-.16.02-.24.01-.12.02-.25.02-.37,0-.91,0-1.81.01-2.72,0-.31-.03-.61-.09-.92-.03-.18-.07-.36-.12-.54,0-.03-.01-.07,0-.1,0-.02.01-.03.03-.04.02,0,.03-.01.05-.01h.92s.04,0,.05.01c.01,0,.03.02.04.04.02.06.01.12.01.18v2.16Z"/><path class="cls-4" d="M296.49,220.48c0,.17-.06.31-.18.43-.09.09-.19.15-.31.19-.25.08-.48.02-.69-.13-.12-.09-.2-.22-.24-.36-.02-.08-.02-.15,0-.23.06-.25.22-.41.46-.5.03-.01.07-.02.1-.02.1-.03.21-.03.31,0,.09.02.17.05.25.09.05.03.1.07.14.11.11.12.17.26.17.42"/><path class="cls-4" d="M274.74,223.11v5.06c0,.48-.02.96-.08,1.44-.04.36-.08.72-.15,1.07-.11.55-.27,1.09-.48,1.61-.13.31-.29.62-.48.9-.49.74-1.13,1.3-1.94,1.66-.61.27-1.25.45-1.91.49-.03,0-.07-.02-.1-.04,0,0,0-.04,0-.06.04-.04.09-.08.13-.11.15-.1.3-.2.45-.31.88-.66,1.5-1.5,1.88-2.52.19-.51.32-1.03.41-1.57.08-.5.12-1,.13-1.5s.03-1,.03-1.51c0-2.25,0-4.5,0-6.74,0-.42-.02-.84-.04-1.26-.03-.5-.11-1-.2-1.49-.05-.26-.11-.51-.16-.77-.03-.13-.04-.28-.06-.41,0-.04.07-.12.11-.12.02,0,.04,0,.06,0,.72,0,1.45,0,2.17,0,.04,0,.08,0,.12.02.03.02.06.05.08.08.02.03.03.08.03.11,0,.2,0,.4,0,.6v5.36"/><path class="cls-4" d="M273.68,213.28c-.55,0-.92-.13-1.25-.38-.28-.21-.46-.49-.55-.83-.04-.18-.05-.36,0-.54.14-.6.53-.97,1.11-1.14.1-.03.2-.05.29-.07.08-.02.16-.02.24-.02.47.02.9.18,1.23.53.28.29.4.64.38,1.04-.02.33-.14.62-.36.86-.21.23-.46.38-.75.46-.15.04-.31.08-.34.08"/><path class="cls-4" d="M317.87,223.43v-4.16c0-.18.01-.36-.02-.54,0-.04-.08-.12-.11-.12-.1-.01-.2-.02-.3-.02-.42,0-.84,0-1.27,0-.1,0-.2,0-.3-.01-.06,0-.15-.1-.15-.16,0-.08,0-.16,0-.24,0-.1.08-.2.17-.23.17-.05.35-.1.52-.15,1.08-.35,1.89-1.02,2.46-2.01.21-.36.37-.75.53-1.15.05-.13.09-.26.14-.4.05-.13.19-.2.34-.14.06.02.1.08.11.13.01.12.02.24.02.36v2.29c0,.16,0,.32,0,.48,0,.26.07.3.33.3h3.25c.14,0,.28.01.42.01.06,0,.15.11.15.17.02.18.02.36,0,.54,0,.02-.02.04-.02.06,0,.04-.09.12-.12.12-.12.01-.24.02-.36.02-.96,0-1.93,0-2.89,0-.18,0-.36,0-.54,0-.04,0-.08,0-.12.02-.03.02-.06.05-.08.09-.02.04-.02.08-.02.12,0,.16,0,.32,0,.48,0,2.67,0,5.34,0,8.01,0,.26,0,.52.02.78.03.32.12.63.28.92.21.39.52.66.93.82.15.06.3.1.46.12.83.12,1.64-.02,2.42-.33.26-.1.5-.25.76-.36.04-.02.08,0,.09.04,0,.02,0,.04-.01.06-.06.1-.12.21-.2.3-.6.77-1.37,1.28-2.31,1.56-.35.1-.7.18-1.07.17-.18,0-.36,0-.54,0-.43-.02-.83-.12-1.22-.31-.59-.27-1.02-.7-1.31-1.28-.18-.34-.29-.7-.36-1.08-.06-.38-.09-.75-.08-1.14,0-1.39,0-2.77,0-4.16"/><path class="cls-4" d="M303.75,188.19c.01-.18.01-.33.01-.45,0-.81-.21-1.72-.63-2.73-.42-1.01-.94-1.86-1.55-2.55-1.76-1.99-3.95-2.98-6.56-2.98-2.4,0-4.45.85-6.15,2.55-1.69,1.7-2.54,3.76-2.54,6.19l17.41-.03Z"/></g></svg>